<svg class="icon" xmlns="http://www.w3.org/2000/svg" viewBox="0 0 24 24">
    <path d="M24 4.557c-.883.392-1.832.656-2.828.775 1.017-.611 1.798-1.577 2.165-2.724-.951.566-2.005.978-3.127 1.199-.896-.959-2.173-1.559-3.591-1.559-2.717 0-4.917 2.2-4.917 4.917 0 .386.044.762.127 1.124-4.083-.205-7.702-2.16-10.125-5.134-.423.725-.666 1.561-.666 2.456 0 1.694.861 3.188 2.173 4.065-.799-.025-1.554-.245-2.213-.611v.061c0 2.364 1.68 4.337 3.911 4.781-.409.111-.84.171-1.285.171-.314 0-.621-.031-.92-.089.622 1.941 2.422 3.355 4.558 3.396-1.67 1.309-3.778 2.089-6.066 2.089-.394 0-.779-.023-1.161-.068 2.162 1.384 4.731 2.191 7.486 2.191 8.982 0 13.89-7.438 13.89-13.89 0-.211-.005-.423-.015-.633.953-.688 1.779-1.547 2.438-2.525z"/>
</svg>