<?xml version="1.0" encoding="UTF-8" standalone="no"?>
<svg
   xmlns:dc="http://purl.org/dc/elements/1.1/"
   xmlns:cc="http://creativecommons.org/ns#"
   xmlns:rdf="http://www.w3.org/1999/02/22-rdf-syntax-ns#"
   xmlns:svg="http://www.w3.org/2000/svg"
   xmlns="http://www.w3.org/2000/svg"
   xmlns:sodipodi="http://sodipodi.sourceforge.net/DTD/sodipodi-0.dtd"
   xmlns:inkscape="http://www.inkscape.org/namespaces/inkscape"
   class="icon"
   viewBox="0 0 24 24"
   version="1.1"
   id="svg1024"
   sodipodi:docname="lupa.svg"
   inkscape:version="1.0.2 (e86c870879, 2021-01-15)">
  <metadata
     id="metadata1030">
    <rdf:RDF>
      <cc:Work
         rdf:about="">
        <dc:format>image/svg+xml</dc:format>
        <dc:type
           rdf:resource="http://purl.org/dc/dcmitype/StillImage" />
      </cc:Work>
    </rdf:RDF>
  </metadata>
  <defs
     id="defs1028" />
  <sodipodi:namedview
     pagecolor="#ffffff"
     bordercolor="#666666"
     borderopacity="1"
     objecttolerance="10"
     gridtolerance="10"
     guidetolerance="10"
     inkscape:pageopacity="0"
     inkscape:pageshadow="2"
     inkscape:window-width="1366"
     inkscape:window-height="712"
     id="namedview1026"
     showgrid="false"
     inkscape:zoom="14.997773"
     inkscape:cx="15.260713"
     inkscape:cy="12.335978"
     inkscape:window-x="0"
     inkscape:window-y="0"
     inkscape:window-maximized="1"
     inkscape:current-layer="svg1024"
     inkscape:document-rotation="0" />
  <path
     d="m 23.384,21.619 -6.528,-6.527 c 1.206,-1.5 1.916,-3.401 1.916,-5.48 0,-4.899 -3.981,-8.88 -8.88,-8.88 -4.899,0 -8.88,3.981 -8.88,8.88 0,4.899 3.981,8.88 8.88,8.88 2.078,0 3.98,-0.71 5.48,-1.916 l 6.527,6.528 c 0.195,0.195 0.451,0.293 0.707,0.293 0.256,0 0.512,-0.098 0.707,-0.293 0.391,-0.391 0.391,-1.023 0,-1.414 z M 3,9.692 c 0,-3.817 3.063,-6.88 6.88,-6.88 3.817,0 6.88,3.063 6.88,6.88 0,3.817 -3.063,6.88 -6.88,6.88 C 6.063,16.572 3,13.509 3,9.692 Z"
     id="path1022"
     sodipodi:nodetypes="ccssssccssccsssss"
     style="fill:#d3d3d3" />
</svg>
